<mxfile host="app.diagrams.net" modified="2022-08-21T03:44:09.649Z" agent="5.0 (Macintosh; Intel Mac OS X 10_15_7) AppleWebKit/537.36 (KHTML, like Gecko) Chrome/104.0.0.0 Safari/537.36" etag="-DN_mk1eW_cNgJArNMqK" version="20.2.2" type="github">
  <diagram id="Y6Xth95FntI_rYtYr6zF" name="페이지-1">
    <mxGraphModel dx="867" dy="736" grid="1" gridSize="10" guides="1" tooltips="1" connect="1" arrows="1" fold="1" page="1" pageScale="1" pageWidth="827" pageHeight="1169" math="0" shadow="0">
      <root>
        <mxCell id="0" />
        <mxCell id="1" parent="0" />
        <mxCell id="eDMy4HiIRSt0F5pLGTvG-15" value="" style="rounded=0;whiteSpace=wrap;html=1;dashed=1;fillStyle=dots;fontSize=14;fontColor=#999999;strokeColor=#333333;strokeWidth=1.5;fillColor=none;" vertex="1" parent="1">
          <mxGeometry x="170" y="640" width="430" height="240" as="geometry" />
        </mxCell>
        <mxCell id="eDMy4HiIRSt0F5pLGTvG-4" value="" style="whiteSpace=wrap;html=1;aspect=fixed;fillStyle=dots;fillColor=none;dashed=1;strokeColor=#FFB570;strokeWidth=1.5;" vertex="1" parent="1">
          <mxGeometry x="70" y="290" width="640" height="640" as="geometry" />
        </mxCell>
        <mxCell id="eDMy4HiIRSt0F5pLGTvG-1" value="" style="outlineConnect=0;dashed=0;verticalLabelPosition=bottom;verticalAlign=top;align=center;html=1;shape=mxgraph.aws3.lambda_function;fillColor=#F58534;gradientColor=none;" vertex="1" parent="1">
          <mxGeometry x="150" y="320" width="69" height="72" as="geometry" />
        </mxCell>
        <mxCell id="eDMy4HiIRSt0F5pLGTvG-2" value="" style="outlineConnect=0;dashed=0;verticalLabelPosition=bottom;verticalAlign=top;align=center;html=1;shape=mxgraph.aws3.lambda_function;fillColor=#F58534;gradientColor=none;" vertex="1" parent="1">
          <mxGeometry x="340" y="320" width="69" height="72" as="geometry" />
        </mxCell>
        <mxCell id="eDMy4HiIRSt0F5pLGTvG-3" value="" style="outlineConnect=0;dashed=0;verticalLabelPosition=bottom;verticalAlign=top;align=center;html=1;shape=mxgraph.aws3.lambda_function;fillColor=#F58534;gradientColor=none;" vertex="1" parent="1">
          <mxGeometry x="510" y="320" width="69" height="72" as="geometry" />
        </mxCell>
        <mxCell id="eDMy4HiIRSt0F5pLGTvG-11" value="" style="shape=image;verticalLabelPosition=bottom;labelBackgroundColor=default;verticalAlign=top;aspect=fixed;imageAspect=0;image=data:image/png,iVBORw0KGgoAAAANSUhEUgAAAGsAAACCCAMAAAB2KsZ0AAAA9lBMVEX2hTb///+dUCX6hzeYTSTNbS6kVCbzhDbQbi+nVifsfzT8iTf2hzmfUynvgDSVSyP07uv2fSD7v5OXQQBrOhn7yrHTuK32gi/2gCmcTR/70Lr/+vj3k1T6xqr3j0v5r4dhNRf96uH5t5T+8er2ikGUOQD1eRHOr6O0Yih3QByZRxTseST5pm7RekeUQQefVTGkXj7dxbyoZ0mPKwDSq5r84dTQglb4qXyFSB6wWhlbKADfpIShjoZ9VUVeIABlMADQw7+dhHdsPCji3NnEs66Qc2VXDABULhS3pJ2+lILckGazg3Ctc1vIZBy6ckjnqYDSlG25eld2Dx+fAAAEj0lEQVRogdXbe3eiRhQA8BvUuIqJEDUzPHygBrPGkpjGuk3bpK3dbd0ku9vv/2U6PFREUMaduef0/pco/s4dmOECFzg5Ii5/aB2zGfBvMhp7JZ22LemWdXnrKcVSAfQat8ZpXd55hhJYAPqQU+OxrOl9g0kri1vjsKZ3obSxfK2VX8ttTe+vIiluAbid3FpOKy5tW0zLm1s+6/LHmJS0gpEUaDWUfRbTIIcmyGKaflATZjGNHNAEWkyr7T1KhFpM2zcDsiztoT/bbJXbArJHS7es0W2D6nZ3xeW3As1M19Isa3TWUE7LQKjbCTkei2luurZrBZLiW35Qd9idcVrgr1xmDmukhL8bWQFX+MngtFK1hKUpqww2FoD6rsht+eukud86U1KswlGWP7tNNMtfJ000yz8HmAlrajqSrGC+xSxWR+ikM2eedivc8jU7mG8QSEZFBUJ0as/F57XRIKyNmBX871yRYvlriW1CWBtFFlRlWX5uEA4aggW1/59VVdXDuhhLve4ppfNDnjCLxYfr/ekJs5oses331+/KmZwg6+fHZhi93nullJGeGIv+8utvzafnFddkowm7nBjLL3kXv/8R9xiXHE1xlh+Lvz7++fwYer2/2WiWVVWWFXmPT8+R16vHjk3xVuD98/HTp9Bj6VXsmkQr8p78WfCBRVWyFTvJ188RLAPRUiRZlraYjpavpmyLfH55vVMajcbYuJlJtgolwzCin60NZFurz+tVYltoFtAJngV6H88C18SzwHXwLKAWnkVsPAv0Lp4FbhvPAn2GZwEZIFodR8a5MtUCat+iWWyzOpoFaqmOZkHhuohmQeEUzwIo4uVVxdtfVcT9VVGwrPAwRLFICW0u61/vFCSLztHWedKx8CwHrwaYodUAfrmBVR/O0Wo20sGre3UL79rBwbsmaqFdE60vv+Rbm8tKSdbblTcOrs6LNx1LrkX709HL6/1t48q7cRDupUR3U2K3N2RaO4F6P2p9g0W+NftyZvgh2xrM2hdBfP327V+J1mDWutjExCYgx1rnE8R8MiRk9S2h1mBmXmwlVAMS+5Ywa+BsOd1Jp0bI1pdErRvz9jY0hIQjziKT2C6yh8mE5FgTG2g6JNZiuygjIcHW3K5lJyTUAnIQEmflClxL8ZAsWgBraXgri5AbWRYlfQvYKW2peBWVUL+loi2jf8NvhekPol4RbVlR7a7pWHJ6RUJp3QOjReWPhB4YNnrRIxbZvT2U9tcPc+RaVO9uHhvt9n0JtKjb3WqhS1jWy9V4xyL62xEWdfuJZr2d3jkt0lYW0V27/eDxWlRPSqn9h6EWWAyatAe8/YeBNNj94dS+ygXTTstEpwF0wmtR2k2RMvtFFy+N8qS13oLHoiRd2tMHu3Bif+S3KGRJontus3MSbWXtJ/EWm7l7JXHWYUmUlVyNvseaNrw91vYK+73WifUw9jKsvBLHuxVaTItZ+SWud0a0oArasiid55Y437vxq6CYxWauw7M55zs+LLdxZFEy55KOeE9KW3pjZrHR45SOeieLnd/eXH7pKMs/JjmOiE38By+pxgFzmpbnAAAAAElFTkSuQmCC;" vertex="1" parent="1">
          <mxGeometry x="90" y="210" width="49.38" height="60" as="geometry" />
        </mxCell>
        <mxCell id="eDMy4HiIRSt0F5pLGTvG-13" value="&lt;b&gt;&lt;font style=&quot;font-size: 14px;&quot; color=&quot;#999999&quot;&gt;AWS Lambda&lt;/font&gt;&lt;/b&gt;" style="text;html=1;strokeColor=none;fillColor=none;align=center;verticalAlign=middle;whiteSpace=wrap;rounded=0;dashed=1;fillStyle=dots;" vertex="1" parent="1">
          <mxGeometry x="150" y="222.5" width="110" height="35" as="geometry" />
        </mxCell>
        <mxCell id="eDMy4HiIRSt0F5pLGTvG-14" value="" style="shape=image;verticalLabelPosition=bottom;labelBackgroundColor=default;verticalAlign=top;aspect=fixed;imageAspect=0;image=data:image/png,iVBORw0KGgoAAAANSUhEUgAAAOEAAADhCAMAAAAJbSJIAAAAkFBMVEX///8iIiAAAAAfHx0cHBoTExAWFhMaGhj8/PwNDQnm5uYFBQAICAAYGBUQEA3u7u5fX15tbWz39/cvLy3g4ODy8vKmpqXY2Nh1dXTJycmVlZRWVlUlJSPCwsFQUE/S0tKfn5+vr69FRUSXl5aAgH8yMjA8PDu4uLiGhoVeXl1JSUh4eHeEhIQxMS85OTfExMTs1FnvAAANmElEQVR4nOVd2WKqShAMAwgIiuIWjQvGuGQ5+v9/dyXnJFGYaoHpAeKtZxSGZWq6p6r74aFKTD52893HpNJzVolJX9imYdqif59jbD96LeMvWt5ju+7LYcfow7eNH9j+x6juS2JFNBNd4xpdMYvqviw2uON5YBppmMF87NZ9aTxYH0V2fJ9jFMd13RfHgNNRWNLxJbDE8VT3BSpi9USM7+8Yn1Z1X6QCzgTYIceXoPN76TH8IUAaZ3oM677YEhgdhH17cP9gi8Nvo8doY3m5x5fAsza/ih7HW19OEEZLgDfX9Lfjui87N/YDPL7+qo/HONjXfem5MH0GBG84opfMmpOecMAYxfO07su/ickrIkBLLL8uf7rEB702mzrafR8QoCkGi4sDFwP0oDt+v7mRVfgOP7FgkF6BrgeS1fgnWuK9mfQYzjxAgKY3j7NUEMVzD4zR9mbNG6Mbz9EE2g1mcjofzYJ01Ph1T/x53LDIak0QxAt+HuELQR1NiqzwvNEK+kPyp8N+gMZ4PTfViSmMkCzRux0arXr4509NoEcG/r65RqgTbWoNlv8lW1DrvDrpMTzg8f0pto4e/8FjPNRFHaOZiSIkz5YQII0otuG/mYBuNGNsoLteMp7FMbPpG9VHVnsDE0TpnET4iKnDqDayOhGzn1JeadInZubqEo8UASrnBnH+sTJ6HPZQitASO47bfNqhMXZEj14hcaD9CAlCbLk+lf0WfuRC875ceAhQijAYMO6zuONBAM5jBxrp0d0YIKIz2ffKkv04cC7P2OiJrNx1B0esL/yUPHrBEXVnrWGMe7RHlkRIer6NNhFZHbnp8URkxzQu/ydEZLXkpMfJE+JhSzzr3RxbPaMxOuKJ69YO4TrjPD79YfiCGOONBEI+tHEqpapNarhNniSBVKeA0cxB6TCvNa5qtygat9A03nXUIqsNIgizGxyq3A2LDgGkx86m7L+6axwBdokUoR6EL10cPZajxz2MkDo8X3hRDKEq4BxZFadHanuIbZYuigkRWS2LRVYUAb7VmcOcvrHQ4/CR9XXgBfXxPOb7eKhPeq5jxVsQ7hruAeWaAN1ZB03LXVE4RagHUQwjq25nRj8DdxxAau1USoA0okMHLkQCKhLXujziRanF5En3EpcXZEAgjaxe8PiWdW8AyTFZ4jG+ZA9/Eejgt6ZsVGaxgPSYHeJUPkAN6QJewOSKSC9MXmUcbwZ246XY7tiWylY6r6kDZY/QsjSl7XjhbizZqyqujxpJRmjumjeByjHcSZ6iSEXGsmfo/BIp/foom1JTz/DhTfagLbFr7jz6hYV8I8d5Sx8nn0vPXNFsKf0K8YXIPJs+2ApR3PLUC7yhGvQzB0c9Ytu6WWvSL7SJTfGeLExYW3DnRTTQaTb6gMIGzwJTZLQxkOCjKzbNGuNok3HDfcEzCNl/SAg+OHdAVeGOoYjKviUwahMpO7ZdbFXgXfBOHpHYsIe02kxKBFUQSgY/p5KBUpO81k2PK8IMUECNcr5NWEpf52p1SJgBCr5glKy5Nik9YQYoI5qOZebdT9TkNCOUfcE8LvWPsxakHLPy1GkUQ61nt1V6D5GU0lerh8QESJoBbqPd97GUvjp63GMzgLqJiFKqV7QNNX3TrHSfLokT6KfHFXGLC24aYmh9SWhU9pmsCT2kxi19YqoTW+YkUuI0k5/L6NqapPSjmQ3pSuaGUz8fjqx0OM0IN5wtNN1TykE55048ruGSSuuykRJ8sCYeF3jpr3unjwpe2OZu0gmtn5+mMAB1eKT0Q0iA5xC8mjXG/qjRaUa54arb6VNJBNFoTios2lBOs7JUFVFuOO2VQaab99nlbEnEo968XGQ1xvb165i7vY7X3BPO4ig8uyuMyzG2YYWdUk4zwg13XcCu3RPC83nZ6Tv5ZoorYqecZgX1DQsiQrreGho6f98dRqPXZYRo+tfx2Aoyl1PExrYitJDL679xd52fU7BEh6nZ207vWuH8bG56JAkwnSIcX250MrBTxstszjNkQGnF3m9fQBuvdmX6rScndQoldpLN3iJ7zdGYSIPduIDwQCT0JGaA0TF9NxXY6UFa7lAyQtpp5sTEKWKnoBtu9CdzfFKAsdT49pbs5TMHoE4J1t1C2RES+xifWlgQAT5JPllTWMXZaQHExvYj+sWQcJdKF5SEG47QM2+kegOzqD8J2o1NQUyPhZxmZd1wI0d+WwqZrKnZm34boPYjLaUnzQD0lU6V2YnyMh9vriKAfse4kuFS4tfbi7EVjP9z+aDDA5oxjPOUlWNadsnEY3IBlIB5m8cMEJ0neXCNdvcGO7kbEyrZc3uZo1jAP7Fm7ZkFRei5zQCSusTff2ISgkp37MDANiiiqIkOKNF5pjlAnMnioABzjz6Qb970HRQqEz7/IKcb5RshNGID2F7R1PmQUERJVSPuO6+XGc8mEpQzA1Ds9J59jI9YyV4ynMZS+sz4ypoBMDuJzMoEqi9VQmnsNLu+hQqRLGSnjPpSttxj8DLvIXd9n2KnmCIEwZvzlDpOqmS31b3M7tpEq+tkfIGp7oaLxrbsMfrXR0mV7FuWDRB3Y6MIybN5zADhtqSS3bJ47IYjeZR7JkCWPTJ3nceN8LCUf4eqH8k/SDIVuTIceQA+dWeZOg7OpUyVfVPxCtMmzmdFwtxKdsiHS5708uqHHh3G/0R8mFWyu49ESpbnfi/eRMc0zA6XGw4vm0zxKJtBsKbkvGhk+mZ655V3j+nbxjWIoA7FjdG8bnQ9JhewG/FskUUHD8ZPNqGbiIjgLWiIkztBFGNHtnUjjm0TcdegAW78BC6W957j2BxZdkpv0QS1Pl7r5lLqJ5i8Ei7puiv7QgI8z/kFKtY3tvB9rrL9+UC9CkVTGmygSpKU+IDWNlFgoxYlO1GSxC4Xx8awTKI26RxGIhyEhRTj0v9KbO4ZldJjFGNbnVoQ1oBqbQm0liShSs4eq/FBL2BjM6aitCuCHivwQVP7WWxCxZNuOwAGaYbg9ApSan2NPmjKy8xuaKFEZ5rocfTCLp0jQfmgPQ0+6NEGRYC0l1kF4cGvTPxJSVh9jdWgyR1wzu+C1GnodelQPugtm5J9q+xlVgFV+J6Fn0gvczVGa61miMosHTT20LBz/kyUlOz4Q/fn1aZQYtg2TcEHTXmZBzHn5csQpS6bpKtSkRUVIaUJN2xzE8b+aTvYpeIU5pZiBRqbLZ7mznzJ+dIuBsIxTcsWqaUS4W8pumwkFr7pFKHbS67GdPi6ll34gNND5PJBF/Iy9/3vU7B4ya6Sp6bIvP448ZjbB429zLIU4UlcnkI5t5l+Dz1JdfAFIdXLkYOmXvWt5D28Vo0oqvWzc4mVroL2CYUyIYWLeURzM32K0lZrWV0Mcys9lPJBow6Wf0+BulhCL3NoZm5m2boY0tom1jO8ViJaBft5LtGJFCZkM8/QKFnbBJSU7n7AX4TvsDZAYMjet7UBvcw+8W7L1Vt+Qas1XFtTQvZk0QznjMyiGS/fW/Ty/YRqyRZYl+M6UeJA/zJ3ESeVUlTffEifAmP4imNcaLb4uXQie/vNXWeOxVnmm1fpQllpx3+9HbyR9dpyvQY4AfFvi5Y6Rb5UiEK9Nh6jMemDHpKnyHmGslZrtrqJo7iL/shG4zO8blzoFCXqJnLWvsSxLBx50bi5cO1L7vql7Xfkg5adwisjVCxYv5S/Bi32QVdwimwNWi11hLF08OoUKkLF/HWENdWCxj7on1Mo7pHlrQWtrZ43qdbnUVnlquetsSa7i51mwZxnP6d0TXauuvpyHzRbZ898dfU190YYvdhp7rJtnn3V3L0RdPe3GF5nK1rinWcPKX9/C/09Si6cZmydPYv0KKmiz8yZu1qmaba4NCoF+8xU0ito0T/Oj33dSn3UK+ihkn5PUcijMSgrR7v7nl0P9993LcG9985LcO/9DxPcew/Lz7+68z6kCe69l+zD/6AfcII77+mc4O77cj80Qq2vfTFJLnH1K80WVTQPpejxWa9acEWMj5W1ylbmUkSh6mGqIFS7gaba+u0+ztrrKCnsrhF1JF5vDUp27NX2OpoiAHcDzWxcmcFvUJUYDY3NQ8MD8kEbAada3x0PYL2yQKNSPwGl1mfrWkbU5NKt1E9AmdlYupYRXce46oXcAiUVURbTU1YAttLIt3GCkZViU0+qujRMEeoBUX07KK3WD4lt6xIVwlUxxtFjObU+odT3jWr7Z31dEVUFv3DiMYqpSv11tQjN1MK+uOt/it318R8swtVMgDSobhQFpPQLQmSsuaHUbVBq/ZxlQqbEzKzZZpwPFD3mUOuviAipQgKkscB2kOBGGD4kIiQ2xwgHClh6LsFsLNIKosMWVOtjpb6eLmCqCGc4YpU5CyJCqe/N6iQIDKprWeadW0MDY43Nam+jTbTrvZo38NzU0d1RURW5Cjk1tgxVPtzkb4Y1Qt3YU2uwFbXOq3uDOT/GWzxGOL5tLRFSWUQbC8VCcniW9q5j3Cik1q+p07cqQti1LIWWp1SloE5M4M77BTpquau6gXOD/1BZMQ99OEEz2+f4jtWmCPUAblJXWtROK1xp8y+TS6nfCEj6wrDvx9WN0cdVFS3bL+qG+wW4aOqZart5PzjTo20mxU9/NQHSmHzs5ruPasf3H54BH16BloeYAAAAAElFTkSuQmCC;" vertex="1" parent="1">
          <mxGeometry x="319.5" y="570" width="110" height="110" as="geometry" />
        </mxCell>
        <mxCell id="eDMy4HiIRSt0F5pLGTvG-16" value="&lt;b&gt;&lt;font color=&quot;#333333&quot; style=&quot;font-size: 16px;&quot;&gt;Library&lt;/font&gt;&lt;/b&gt;" style="text;html=1;strokeColor=none;fillColor=none;align=center;verticalAlign=middle;whiteSpace=wrap;rounded=0;dashed=1;fillStyle=dots;fontSize=14;fontColor=#999999;" vertex="1" parent="1">
          <mxGeometry x="240" y="700" width="270" height="30" as="geometry" />
        </mxCell>
        <mxCell id="eDMy4HiIRSt0F5pLGTvG-17" value="&lt;b&gt;&lt;font color=&quot;#333333&quot; style=&quot;font-size: 16px;&quot;&gt;Other Dependencies&lt;/font&gt;&lt;/b&gt;" style="text;html=1;strokeColor=none;fillColor=none;align=center;verticalAlign=middle;whiteSpace=wrap;rounded=0;dashed=1;fillStyle=dots;fontSize=14;fontColor=#999999;" vertex="1" parent="1">
          <mxGeometry x="240" y="750" width="270" height="30" as="geometry" />
        </mxCell>
        <mxCell id="eDMy4HiIRSt0F5pLGTvG-20" value="" style="endArrow=classic;html=1;rounded=0;fontSize=16;fontColor=#333333;" edge="1" parent="1">
          <mxGeometry width="50" height="50" relative="1" as="geometry">
            <mxPoint x="210" y="410" as="sourcePoint" />
            <mxPoint x="330" y="560" as="targetPoint" />
          </mxGeometry>
        </mxCell>
        <mxCell id="eDMy4HiIRSt0F5pLGTvG-21" value="" style="endArrow=classic;html=1;rounded=0;fontSize=16;fontColor=#333333;" edge="1" parent="1">
          <mxGeometry width="50" height="50" relative="1" as="geometry">
            <mxPoint x="375" y="400" as="sourcePoint" />
            <mxPoint x="375" y="550" as="targetPoint" />
          </mxGeometry>
        </mxCell>
        <mxCell id="eDMy4HiIRSt0F5pLGTvG-22" value="" style="endArrow=classic;html=1;rounded=0;fontSize=16;fontColor=#333333;" edge="1" parent="1">
          <mxGeometry width="50" height="50" relative="1" as="geometry">
            <mxPoint x="530" y="410" as="sourcePoint" />
            <mxPoint x="410" y="560" as="targetPoint" />
          </mxGeometry>
        </mxCell>
      </root>
    </mxGraphModel>
  </diagram>
</mxfile>
